<svg xmlns="http://www.w3.org/2000/svg" xmlns:xlink="http://www.w3.org/1999/xlink" width="700" zoomAndPan="magnify" viewBox="0 0 525 525.000007" height="700" preserveAspectRatio="xMidYMid meet" version="1.0"><defs><clipPath id="c7f7876098"><path d="M 135.253906 21 L 389.769531 21 L 389.769531 503 L 135.253906 503 Z M 135.253906 21 " clip-rule="nonzero"/></clipPath><clipPath id="339739040e"><path d="M 135.253906 21 L 389.769531 21 L 389.769531 503 L 135.253906 503 Z M 135.253906 21 " clip-rule="nonzero"/></clipPath></defs><g clip-path="url(#c7f7876098)"><path fill="#000000" d="M 250.695312 502.433594 L 251.035156 407.585938 L 251.035156 291.835938 C 251.035156 291.835938 246.832031 294.449219 246.832031 294.449219 L 245.128906 295.472656 L 242.515625 297.0625 C 240.242188 298.425781 237.96875 299.675781 235.699219 300.925781 L 228.878906 304.445312 C 226.609375 305.582031 224.449219 306.71875 222.175781 307.742188 C 218.3125 309.558594 214.335938 311.375 210.019531 313.078125 C 205.816406 314.78125 201.269531 316.488281 196.609375 318.304688 C 191.953125 320.007812 187.066406 321.710938 181.839844 323.300781 C 176.726562 324.890625 171.273438 326.597656 165.707031 328.1875 L 153.207031 331.820312 L 135.480469 209.597656 L 137.414062 117.816406 L 145.480469 115.542969 C 154.570312 112.933594 163.09375 110.09375 171.046875 107.253906 C 179 104.414062 186.5 101.347656 193.316406 98.277344 C 200.132812 95.210938 206.496094 91.917969 212.292969 88.625 C 217.972656 85.328125 223.3125 81.921875 227.972656 78.402344 C 232.742188 74.878906 237.175781 71.246094 241.378906 67.269531 C 245.582031 63.40625 249.445312 59.316406 253.195312 55.113281 C 256.832031 50.910156 260.238281 46.367188 263.308594 41.824219 C 266.375 37.167969 269.328125 32.28125 271.941406 27.398438 L 275.125 21.265625 L 381.25 21.265625 L 389.429688 408.835938 L 370.453125 502.546875 L 250.921875 502.546875 Z M 250.695312 502.433594 " fill-opacity="1" fill-rule="nonzero"/></g><path fill="#ffffff" d="M 268.078125 402.019531 L 268.078125 145.078125 C 268.078125 145.078125 258.988281 151.324219 258.988281 151.324219 C 254.558594 154.394531 250.242188 157.347656 245.921875 160.074219 C 241.605469 162.910156 237.289062 165.523438 232.96875 168.023438 C 228.652344 170.523438 224.449219 172.90625 220.246094 175.066406 C 216.039062 177.222656 211.949219 179.269531 207.746094 181.199219 C 203.65625 183.132812 199.222656 184.949219 194.566406 186.878906 C 189.90625 188.8125 184.90625 190.628906 179.679688 192.445312 C 174.453125 194.261719 168.886719 196.195312 163.09375 198.011719 C 159.570312 199.148438 156.046875 200.167969 152.296875 201.304688 L 153.777344 130.652344 C 161.730469 128.265625 169.339844 125.769531 176.386719 123.269531 C 184.792969 120.203125 192.632812 117.019531 199.90625 113.726562 C 207.179688 110.433594 214.109375 106.910156 220.359375 103.390625 C 226.609375 99.753906 232.515625 96.007812 237.742188 92.144531 C 242.96875 88.28125 247.96875 84.195312 252.628906 79.878906 C 257.285156 75.5625 261.71875 71.015625 265.695312 66.246094 C 269.785156 61.476562 273.535156 56.476562 277.054688 51.367188 C 279.898438 47.164062 282.511719 42.734375 285.011719 38.304688 L 364.089844 38.304688 L 371.816406 402.132812 L 267.851562 402.132812 Z M 268.078125 402.019531 " fill-opacity="1" fill-rule="nonzero"/><g clip-path="url(#339739040e)"><path fill="#000000" d="M 250.695312 502.433594 L 251.035156 407.585938 L 251.035156 291.835938 C 251.035156 291.835938 246.832031 294.449219 246.832031 294.449219 L 245.128906 295.472656 L 242.515625 297.0625 C 240.242188 298.425781 237.96875 299.675781 235.699219 300.925781 L 228.878906 304.445312 C 226.609375 305.582031 224.449219 306.71875 222.175781 307.742188 C 218.3125 309.558594 214.335938 311.375 210.019531 313.078125 C 205.816406 314.78125 201.269531 316.488281 196.609375 318.304688 C 191.953125 320.007812 187.066406 321.710938 181.839844 323.300781 C 176.726562 324.890625 171.273438 326.597656 165.707031 328.1875 L 153.207031 331.820312 L 135.480469 209.597656 L 137.414062 117.816406 L 145.480469 115.542969 C 154.570312 112.933594 163.09375 110.09375 171.046875 107.253906 C 179 104.414062 186.5 101.347656 193.316406 98.277344 C 200.132812 95.210938 206.496094 91.917969 212.292969 88.625 C 217.972656 85.328125 223.3125 81.921875 227.972656 78.402344 C 232.742188 74.878906 237.175781 71.246094 241.378906 67.269531 C 245.582031 63.40625 249.445312 59.316406 253.195312 55.113281 C 256.832031 50.910156 260.238281 46.367188 263.308594 41.824219 C 266.375 37.167969 269.328125 32.28125 271.941406 27.398438 L 275.125 21.265625 L 381.25 21.265625 L 389.429688 408.835938 L 370.453125 502.546875 L 250.921875 502.546875 Z M 250.695312 502.433594 " fill-opacity="1" fill-rule="nonzero"/></g><path fill="#ffffff" d="M 268.078125 402.019531 L 268.078125 145.078125 C 268.078125 145.078125 258.988281 151.324219 258.988281 151.324219 C 254.558594 154.394531 250.242188 157.347656 245.921875 160.074219 C 241.605469 162.910156 237.289062 165.523438 232.96875 168.023438 C 228.652344 170.523438 224.449219 172.90625 220.246094 175.066406 C 216.039062 177.222656 211.949219 179.269531 207.746094 181.199219 C 203.65625 183.132812 199.222656 184.949219 194.566406 186.878906 C 189.90625 188.8125 184.90625 190.628906 179.679688 192.445312 C 174.453125 194.261719 168.886719 196.195312 163.09375 198.011719 C 159.570312 199.148438 156.046875 200.167969 152.296875 201.304688 L 153.777344 130.652344 C 161.730469 128.265625 169.339844 125.769531 176.386719 123.269531 C 184.792969 120.203125 192.632812 117.019531 199.90625 113.726562 C 207.179688 110.433594 214.109375 106.910156 220.359375 103.390625 C 226.609375 99.753906 232.515625 96.007812 237.742188 92.144531 C 242.96875 88.28125 247.96875 84.195312 252.628906 79.878906 C 257.285156 75.5625 261.71875 71.015625 265.695312 66.246094 C 269.785156 61.476562 273.535156 56.476562 277.054688 51.367188 C 279.898438 47.164062 282.511719 42.734375 285.011719 38.304688 L 364.089844 38.304688 L 371.816406 402.132812 L 267.851562 402.132812 Z M 268.078125 402.019531 " fill-opacity="1" fill-rule="nonzero"/></svg>