<svg xmlns="http://www.w3.org/2000/svg" xmlns:xlink="http://www.w3.org/1999/xlink" width="700" zoomAndPan="magnify" viewBox="0 0 525 525.000007" height="700" preserveAspectRatio="xMidYMid meet" version="1.0"><defs><clipPath id="ff75e4de1c"><path d="M 227.25 157.199219 L 297 157.199219 L 297 366.800781 L 227.25 366.800781 Z M 227.25 157.199219 " clip-rule="nonzero"/></clipPath><clipPath id="40be220967"><path d="M 48.082031 13 L 477 13 L 477 512 L 48.082031 512 Z M 48.082031 13 " clip-rule="nonzero"/></clipPath><clipPath id="a6f0229c7c"><path d="M 48.082031 13 L 477 13 L 477 512 L 48.082031 512 Z M 48.082031 13 " clip-rule="nonzero"/></clipPath></defs><g clip-path="url(#ff75e4de1c)"><path fill="#ffffff" d="M 276.285156 166.703125 C 278.371094 166.703125 280.453125 167.308594 282.269531 168.507812 C 285.789062 170.84375 287.636719 175.011719 287.007812 179.191406 C 278.691406 234.164062 276.742188 290.132812 281.199219 345.546875 C 281.683594 351.53125 277.230469 356.765625 271.261719 357.25 C 270.964844 357.273438 270.671875 357.285156 270.378906 357.285156 C 264.785156 357.285156 260.042969 352.976562 259.585938 347.292969 C 255.746094 299.605469 256.519531 251.519531 261.875 203.964844 C 260.179688 205.929688 258.574219 207.957031 257.074219 210.054688 C 254.953125 213.011719 251.628906 214.582031 248.253906 214.582031 C 246.0625 214.582031 243.855469 213.921875 241.941406 212.546875 C 237.074219 209.046875 235.960938 202.261719 239.453125 197.382812 C 247.734375 185.824219 258.503906 175.773438 270.601562 168.3125 C 272.34375 167.242188 274.316406 166.703125 276.285156 166.703125 M 276.285156 157.199219 C 272.515625 157.199219 268.828125 158.25 265.625 160.226562 C 252.46875 168.34375 240.753906 179.273438 231.746094 191.851562 C 228.582031 196.269531 227.320312 201.660156 228.199219 207.03125 C 229.082031 212.398438 231.992188 217.101562 236.40625 220.273438 C 239.882812 222.773438 243.980469 224.09375 248.253906 224.09375 C 248.960938 224.09375 249.671875 224.058594 250.371094 223.984375 C 246.898438 265.242188 246.816406 306.886719 250.128906 348.0625 C 250.972656 358.5625 259.867188 366.792969 270.378906 366.792969 C 270.925781 366.792969 271.480469 366.769531 272.023438 366.726562 C 277.4375 366.289062 282.355469 363.765625 285.875 359.621094 C 289.394531 355.476562 291.09375 350.210938 290.652344 344.785156 C 286.253906 290.097656 288.179688 234.863281 296.382812 180.617188 C 297.566406 172.804688 294.078125 164.941406 287.503906 160.578125 C 284.164062 158.367188 280.285156 157.199219 276.285156 157.199219 Z M 276.285156 157.199219 " fill-opacity="1" fill-rule="nonzero"/></g><path fill="#000000" d="M 270.378906 357.289062 C 264.785156 357.289062 260.042969 352.980469 259.582031 347.296875 C 255.742188 299.609375 256.515625 251.523438 261.867188 203.96875 C 260.175781 205.933594 258.570312 207.960938 257.070312 210.058594 C 253.574219 214.933594 246.800781 216.046875 241.9375 212.550781 C 237.070312 209.050781 235.957031 202.265625 239.449219 197.390625 C 247.730469 185.828125 258.5 175.777344 270.597656 168.316406 C 274.191406 166.101562 278.742188 166.171875 282.269531 168.507812 C 285.792969 170.84375 287.636719 175.011719 287.007812 179.191406 C 278.691406 234.164062 276.742188 290.132812 281.199219 345.546875 C 281.683594 351.53125 277.230469 356.765625 271.261719 357.25 C 270.964844 357.277344 270.671875 357.289062 270.378906 357.289062 Z M 270.378906 357.289062 " fill-opacity="1" fill-rule="nonzero"/><g clip-path="url(#40be220967)"><path fill="#000000" d="M 423.476562 326.070312 L 411.769531 326.070312 C 428.054688 311.386719 440.613281 297.230469 449.449219 283.503906 C 465.730469 258.179688 474.035156 231.042969 474.035156 202.84375 C 474.035156 175.921875 466.582031 151.230469 451.894531 129.523438 C 437.207031 107.816406 391.226562 49.605469 338.328125 27.898438 C 313.847656 17.894531 281.707031 13 239.769531 13 C 199.324219 13 167.925781 18.109375 143.980469 28.75 C 119.390625 39.605469 99.914062 55.671875 86.078125 76.421875 C 72.667969 96.640625 63.726562 123.246094 58.9375 157.828125 L 55.851562 180.175781 L 109.066406 233.382812 L 184.316406 239.449219 C 138.550781 274.777344 107.152344 305.636719 88.632812 333.304688 C 67.664062 364.699219 54.894531 398.855469 50.742188 434.613281 L 48.082031 458.34375 L 101.296875 511.550781 L 476.695312 511.550781 L 476.695312 379.277344 Z M 423.476562 326.070312 " fill-opacity="1" fill-rule="nonzero"/></g><path fill="#ffffff" d="M 402.191406 437.058594 L 72.027344 437.058594 C 75.859375 404.496094 87.25 373.851562 106.515625 345.117188 C 125.671875 316.386719 161.648438 282.441406 214.4375 243.386719 C 246.6875 219.441406 267.335938 201.246094 276.277344 188.796875 C 285.324219 176.347656 289.792969 164.535156 289.792969 153.359375 C 289.792969 141.335938 285.324219 131.011719 276.382812 122.394531 C 267.445312 113.878906 256.269531 109.519531 242.75 109.519531 C 228.699219 109.519531 217.207031 113.878906 208.265625 122.714844 C 199.324219 131.546875 193.363281 147.082031 190.277344 169.429688 L 80.117188 160.703125 C 84.480469 129.738281 92.359375 105.582031 103.851562 88.128906 C 115.347656 70.675781 131.632812 57.375 152.601562 48.117188 C 173.566406 38.964844 202.625 34.285156 239.769531 34.285156 C 278.511719 34.285156 308.632812 38.753906 330.132812 47.480469 C 351.632812 56.3125 368.558594 69.824219 380.902344 88.128906 C 393.25 106.433594 399.421875 126.863281 399.421875 149.636719 C 399.421875 173.792969 392.398438 196.777344 378.242188 218.804688 C 364.085938 240.832031 338.4375 264.882812 301.078125 291.167969 C 278.9375 306.488281 264.144531 317.238281 256.585938 323.304688 C 249.136719 329.476562 240.300781 337.457031 230.191406 347.351562 L 402.082031 347.351562 L 402.082031 437.058594 Z M 402.191406 437.058594 " fill-opacity="1" fill-rule="nonzero"/><g clip-path="url(#a6f0229c7c)"><path fill="#000000" d="M 423.476562 326.070312 L 411.769531 326.070312 C 428.054688 311.386719 440.613281 297.230469 449.449219 283.503906 C 465.730469 258.179688 474.035156 231.042969 474.035156 202.84375 C 474.035156 175.921875 466.582031 151.230469 451.894531 129.523438 C 437.207031 107.816406 391.226562 49.605469 338.328125 27.898438 C 313.847656 17.894531 281.707031 13 239.769531 13 C 199.324219 13 167.925781 18.109375 143.980469 28.75 C 119.390625 39.605469 99.914062 55.671875 86.078125 76.421875 C 72.667969 96.640625 63.726562 123.246094 58.9375 157.828125 L 55.851562 180.175781 L 109.066406 233.382812 L 184.316406 239.449219 C 138.550781 274.777344 107.152344 305.636719 88.632812 333.304688 C 67.664062 364.699219 54.894531 398.855469 50.742188 434.613281 L 48.082031 458.34375 L 101.296875 511.550781 L 476.695312 511.550781 L 476.695312 379.277344 Z M 423.476562 326.070312 " fill-opacity="1" fill-rule="nonzero"/></g><path fill="#ffffff" d="M 402.191406 437.058594 L 72.027344 437.058594 C 75.859375 404.496094 87.25 373.851562 106.515625 345.117188 C 125.671875 316.386719 161.648438 282.441406 214.4375 243.386719 C 246.6875 219.441406 267.335938 201.246094 276.277344 188.796875 C 285.324219 176.347656 289.792969 164.535156 289.792969 153.359375 C 289.792969 141.335938 285.324219 131.011719 276.382812 122.394531 C 267.445312 113.878906 256.269531 109.519531 242.75 109.519531 C 228.699219 109.519531 217.207031 113.878906 208.265625 122.714844 C 199.324219 131.546875 193.363281 147.082031 190.277344 169.429688 L 80.117188 160.703125 C 84.480469 129.738281 92.359375 105.582031 103.851562 88.128906 C 115.347656 70.675781 131.632812 57.375 152.601562 48.117188 C 173.566406 38.964844 202.625 34.285156 239.769531 34.285156 C 278.511719 34.285156 308.632812 38.753906 330.132812 47.480469 C 351.632812 56.3125 368.558594 69.824219 380.902344 88.128906 C 393.25 106.433594 399.421875 126.863281 399.421875 149.636719 C 399.421875 173.792969 392.398438 196.777344 378.242188 218.804688 C 364.085938 240.832031 338.4375 264.882812 301.078125 291.167969 C 278.9375 306.488281 264.144531 317.238281 256.585938 323.304688 C 249.136719 329.476562 240.300781 337.457031 230.191406 347.351562 L 402.082031 347.351562 L 402.082031 437.058594 Z M 402.191406 437.058594 " fill-opacity="1" fill-rule="nonzero"/></svg>