<svg xmlns="http://www.w3.org/2000/svg" xmlns:xlink="http://www.w3.org/1999/xlink" width="700" zoomAndPan="magnify" viewBox="0 0 525 525.000007" height="700" preserveAspectRatio="xMidYMid meet" version="1.0"><defs><clipPath id="b1e2d2332d"><path d="M 291.710938 157.199219 L 297.699219 157.199219 L 297.699219 175.167969 L 291.710938 175.167969 Z M 291.710938 157.199219 " clip-rule="nonzero"/></clipPath><clipPath id="0ff2f0214b"><path d="M 34 4.828125 L 491 4.828125 L 491 519.097656 L 34 519.097656 Z M 34 4.828125 " clip-rule="nonzero"/></clipPath><clipPath id="8686ba560c"><path d="M 34 4.828125 L 491 4.828125 L 491 519.097656 L 34 519.097656 Z M 34 4.828125 " clip-rule="nonzero"/></clipPath></defs><g clip-path="url(#b1e2d2332d)"><path fill="#ffffff" d="M 295.882812 158.015625 C 296.0625 158.015625 296.238281 158.066406 296.394531 158.167969 C 296.695312 158.371094 296.851562 158.726562 296.796875 159.085938 C 296.089844 163.796875 295.921875 168.59375 296.304688 173.34375 C 296.34375 173.855469 295.964844 174.304688 295.457031 174.347656 C 295.429688 174.347656 295.40625 174.351562 295.382812 174.351562 C 294.90625 174.351562 294.5 173.980469 294.460938 173.496094 C 294.136719 169.40625 294.203125 165.285156 294.65625 161.210938 C 294.511719 161.378906 294.375 161.550781 294.25 161.730469 C 294.066406 161.984375 293.785156 162.117188 293.496094 162.117188 C 293.3125 162.117188 293.125 162.0625 292.960938 161.945312 C 292.546875 161.644531 292.449219 161.0625 292.75 160.644531 C 293.453125 159.652344 294.371094 158.792969 295.402344 158.152344 C 295.550781 158.0625 295.71875 158.015625 295.882812 158.015625 M 295.882812 157.199219 C 295.5625 157.199219 295.25 157.289062 294.976562 157.460938 C 293.855469 158.15625 292.859375 159.09375 292.09375 160.171875 C 291.824219 160.550781 291.714844 161.011719 291.789062 161.472656 C 291.863281 161.933594 292.113281 162.335938 292.488281 162.605469 C 292.785156 162.820312 293.132812 162.933594 293.496094 162.933594 C 293.558594 162.933594 293.617188 162.929688 293.679688 162.925781 C 293.382812 166.460938 293.375 170.03125 293.65625 173.558594 C 293.730469 174.460938 294.488281 175.164062 295.382812 175.164062 C 295.429688 175.164062 295.476562 175.164062 295.523438 175.160156 C 295.984375 175.121094 296.402344 174.90625 296.703125 174.550781 C 297 174.195312 297.144531 173.746094 297.109375 173.277344 C 296.734375 168.589844 296.898438 163.859375 297.597656 159.207031 C 297.695312 158.539062 297.398438 157.863281 296.839844 157.492188 C 296.554688 157.300781 296.226562 157.199219 295.882812 157.199219 Z M 295.882812 157.199219 " fill-opacity="1" fill-rule="nonzero"/></g><path fill="#000000" d="M 295.382812 174.351562 C 294.90625 174.351562 294.5 173.980469 294.460938 173.496094 C 294.136719 169.40625 294.199219 165.285156 294.65625 161.210938 C 294.511719 161.378906 294.375 161.550781 294.25 161.730469 C 293.949219 162.148438 293.375 162.246094 292.960938 161.945312 C 292.546875 161.644531 292.449219 161.0625 292.746094 160.644531 C 293.453125 159.65625 294.371094 158.792969 295.398438 158.152344 C 295.707031 157.964844 296.09375 157.96875 296.394531 158.167969 C 296.695312 158.371094 296.851562 158.726562 296.796875 159.085938 C 296.089844 163.796875 295.921875 168.59375 296.304688 173.34375 C 296.34375 173.855469 295.964844 174.304688 295.457031 174.347656 C 295.429688 174.351562 295.40625 174.351562 295.382812 174.351562 Z M 295.382812 174.351562 " fill-opacity="1" fill-rule="nonzero"/><g clip-path="url(#0ff2f0214b)"><path fill="#000000" d="M 446.738281 267.125 L 439.378906 267.125 L 439.378906 59.769531 L 384.433594 4.828125 L 253.230469 4.828125 L 34.453125 264.820312 L 34.453125 388.332031 L 89.394531 443.273438 L 241.476562 443.273438 L 241.476562 464.703125 L 296.417969 519.648438 L 439.378906 519.648438 L 439.378906 443.273438 L 490.695312 443.273438 L 490.695312 311.082031 Z M 446.738281 267.125 " fill-opacity="1" fill-rule="nonzero"/></g><path fill="#ffffff" d="M 263.453125 366.355469 L 56.429688 366.355469 L 56.429688 272.949219 L 263.453125 26.804688 L 362.457031 26.804688 L 362.457031 278.117188 L 413.773438 278.117188 L 413.773438 366.246094 L 362.457031 366.246094 L 362.457031 442.726562 L 263.453125 442.726562 Z M 263.453125 278.117188 L 263.453125 149.4375 L 154.117188 278.117188 Z M 263.453125 278.117188 " fill-opacity="1" fill-rule="nonzero"/><g clip-path="url(#8686ba560c)"><path fill="#000000" d="M 446.738281 267.125 L 439.378906 267.125 L 439.378906 59.769531 L 384.433594 4.828125 L 253.230469 4.828125 L 34.453125 264.820312 L 34.453125 388.332031 L 89.394531 443.273438 L 241.476562 443.273438 L 241.476562 464.703125 L 296.417969 519.648438 L 439.378906 519.648438 L 439.378906 443.273438 L 490.695312 443.273438 L 490.695312 311.082031 Z M 446.738281 267.125 " fill-opacity="1" fill-rule="nonzero"/></g><path fill="#ffffff" d="M 263.453125 366.355469 L 56.429688 366.355469 L 56.429688 272.949219 L 263.453125 26.804688 L 362.457031 26.804688 L 362.457031 278.117188 L 413.773438 278.117188 L 413.773438 366.246094 L 362.457031 366.246094 L 362.457031 442.726562 L 263.453125 442.726562 Z M 263.453125 278.117188 L 263.453125 149.4375 L 154.117188 278.117188 Z M 263.453125 278.117188 " fill-opacity="1" fill-rule="nonzero"/></svg>