<svg xmlns="http://www.w3.org/2000/svg" xmlns:xlink="http://www.w3.org/1999/xlink" width="700" zoomAndPan="magnify" viewBox="0 0 525 525.000007" height="700" preserveAspectRatio="xMidYMid meet" version="1.0"><defs><clipPath id="6c3bb50bab"><path d="M 291.710938 157.199219 L 297.699219 157.199219 L 297.699219 175.167969 L 291.710938 175.167969 Z M 291.710938 157.199219 " clip-rule="nonzero"/></clipPath><clipPath id="a3083358f6"><path d="M 53.546875 10 L 471.25 10 L 471.25 514 L 53.546875 514 Z M 53.546875 10 " clip-rule="nonzero"/></clipPath></defs><g clip-path="url(#6c3bb50bab)"><path fill="#ffffff" d="M 295.882812 158.015625 C 296.0625 158.015625 296.238281 158.066406 296.394531 158.167969 C 296.695312 158.371094 296.851562 158.726562 296.796875 159.085938 C 296.089844 163.796875 295.921875 168.59375 296.304688 173.34375 C 296.34375 173.855469 295.964844 174.304688 295.457031 174.347656 C 295.429688 174.347656 295.40625 174.351562 295.382812 174.351562 C 294.90625 174.351562 294.5 173.980469 294.460938 173.496094 C 294.136719 169.40625 294.203125 165.285156 294.65625 161.210938 C 294.511719 161.378906 294.375 161.550781 294.25 161.730469 C 294.066406 161.984375 293.785156 162.117188 293.496094 162.117188 C 293.3125 162.117188 293.125 162.0625 292.960938 161.945312 C 292.546875 161.644531 292.449219 161.0625 292.75 160.644531 C 293.453125 159.652344 294.371094 158.792969 295.402344 158.152344 C 295.550781 158.0625 295.71875 158.015625 295.882812 158.015625 M 295.882812 157.199219 C 295.5625 157.199219 295.25 157.289062 294.976562 157.460938 C 293.855469 158.15625 292.859375 159.09375 292.09375 160.171875 C 291.824219 160.550781 291.714844 161.011719 291.789062 161.472656 C 291.863281 161.933594 292.113281 162.335938 292.488281 162.605469 C 292.785156 162.820312 293.132812 162.933594 293.496094 162.933594 C 293.558594 162.933594 293.617188 162.929688 293.679688 162.925781 C 293.382812 166.460938 293.375 170.03125 293.65625 173.558594 C 293.730469 174.460938 294.488281 175.164062 295.382812 175.164062 C 295.429688 175.164062 295.476562 175.164062 295.523438 175.160156 C 295.984375 175.121094 296.402344 174.90625 296.703125 174.550781 C 297 174.195312 297.144531 173.746094 297.109375 173.277344 C 296.734375 168.589844 296.898438 163.859375 297.597656 159.207031 C 297.695312 158.539062 297.398438 157.863281 296.839844 157.492188 C 296.554688 157.300781 296.226562 157.199219 295.882812 157.199219 Z M 295.882812 157.199219 " fill-opacity="1" fill-rule="nonzero"/></g><path fill="#000000" d="M 295.382812 174.351562 C 294.90625 174.351562 294.5 173.980469 294.460938 173.496094 C 294.136719 169.40625 294.199219 165.285156 294.65625 161.210938 C 294.511719 161.378906 294.375 161.550781 294.25 161.730469 C 293.949219 162.148438 293.375 162.246094 292.960938 161.945312 C 292.546875 161.644531 292.449219 161.0625 292.746094 160.644531 C 293.453125 159.65625 294.371094 158.792969 295.398438 158.152344 C 295.707031 157.964844 296.09375 157.96875 296.394531 158.167969 C 296.695312 158.371094 296.851562 158.726562 296.796875 159.085938 C 296.089844 163.796875 295.921875 168.59375 296.304688 173.34375 C 296.34375 173.855469 295.964844 174.304688 295.457031 174.347656 C 295.429688 174.351562 295.40625 174.351562 295.382812 174.351562 Z M 295.382812 174.351562 " fill-opacity="1" fill-rule="nonzero"/><g clip-path="url(#a3083358f6)"><path fill="#000000" d="M 452.378906 303.003906 C 446.441406 293.460938 439.019531 284.761719 430.222656 277.019531 C 428.3125 274.792969 426.191406 272.671875 424.074219 270.550781 C 430.328125 264.402344 435.628906 258.144531 439.871094 251.675781 C 452.167969 232.796875 458.421875 212.117188 458.421875 190.269531 C 458.421875 139.152344 385.589844 65.445312 359.613281 44.765625 C 330.355469 21.433594 287.734375 10.085938 229.53125 10.085938 C 185.640625 10.085938 149.277344 19.421875 121.503906 37.980469 C 84.398438 63.113281 65.632812 96.203125 65.632812 136.609375 C 65.632812 161 72.3125 183.058594 85.5625 202.042969 C 89.589844 207.769531 94.46875 213.179688 100.191406 218.375 C 89.273438 226.328125 80.261719 235.554688 73.265625 246.054688 C 60.226562 265.566406 53.546875 289.324219 53.546875 316.683594 C 53.546875 344.152344 60.332031 369.5 73.796875 391.875 C 81.109375 404.070312 137.722656 475.128906 186.703125 496.972656 C 211.722656 508.214844 245.964844 513.625 291.128906 513.625 C 314.769531 513.625 337.5625 511.183594 358.554688 506.519531 C 380.816406 501.535156 400.007812 493.472656 415.378906 482.550781 C 431.28125 471.308594 444.640625 455.507812 455.242188 435.464844 C 465.84375 415.3125 471.25 393.359375 471.25 370.242188 C 471.355469 345.847656 464.996094 323.261719 452.378906 303.003906 Z M 452.378906 303.003906 " fill-opacity="1" fill-rule="nonzero"/></g><path fill="#ffffff" d="M 140.691406 220.601562 C 123.515625 211.480469 110.902344 201.195312 103.054688 189.953125 C 92.242188 174.46875 86.941406 156.757812 86.941406 136.609375 C 86.941406 103.625 102.417969 76.582031 133.480469 55.585938 C 157.652344 39.359375 189.671875 31.296875 229.53125 31.296875 C 282.328125 31.296875 321.238281 41.375 346.46875 61.417969 C 371.699219 81.460938 384.316406 106.808594 384.316406 137.351562 C 384.316406 155.167969 379.335938 171.710938 369.261719 187.195312 C 361.734375 198.648438 349.863281 209.785156 333.746094 220.601562 C 355.054688 230.78125 371.066406 244.355469 381.558594 261.21875 C 392.054688 278.082031 397.355469 296.746094 397.355469 317.214844 C 397.355469 336.941406 392.796875 355.394531 383.785156 372.574219 C 374.773438 389.753906 363.644531 402.90625 350.390625 412.238281 C 337.246094 421.570312 320.8125 428.464844 301.09375 432.8125 C 281.480469 437.160156 260.488281 439.386719 238.226562 439.386719 C 196.457031 439.386719 164.4375 434.402344 142.386719 424.539062 C 120.335938 414.675781 103.585938 400.148438 92.03125 380.953125 C 80.472656 361.863281 74.75 340.335938 74.75 316.683594 C 74.75 293.566406 80.15625 273.945312 90.863281 257.824219 C 101.675781 241.8125 118.214844 229.402344 140.691406 220.601562 Z M 184.050781 312.867188 C 184.050781 330.257812 189.351562 344.46875 199.953125 355.5 C 210.554688 366.53125 222.640625 372.042969 236.316406 372.042969 C 249.464844 372.042969 261.125 366.421875 271.621094 355.183594 C 282.011719 343.941406 287.207031 329.730469 287.207031 312.550781 C 287.207031 295.15625 281.90625 280.839844 271.410156 269.703125 C 260.914062 258.566406 248.722656 253.054688 234.941406 253.054688 C 221.265625 253.054688 209.390625 258.460938 199.316406 269.171875 C 189.035156 280.097656 184.050781 294.625 184.050781 312.867188 Z M 189.988281 143.078125 C 189.988281 156.757812 194.230469 167.679688 202.710938 176.058594 C 211.191406 184.4375 222.640625 188.574219 236.742188 188.574219 C 249.253906 188.574219 259.640625 184.4375 267.699219 176.164062 C 275.757812 167.894531 279.785156 157.183594 279.785156 144.136719 C 279.785156 130.457031 275.542969 119.425781 267.167969 110.835938 C 258.792969 102.351562 247.980469 98.109375 234.832031 98.109375 C 221.582031 98.109375 210.769531 102.246094 202.394531 110.625 C 194.125 118.898438 189.988281 129.714844 189.988281 143.078125 Z M 189.988281 143.078125 " fill-opacity="1" fill-rule="nonzero"/></svg>